<svg width="24" height="24" viewBox="0 0 24 24" fill="none" xmlns="http://www.w3.org/2000/svg">
<path fill-rule="evenodd" clip-rule="evenodd" d="M20.7508 21.9397H13.4978C13.0838 21.9397 12.7478 21.6037 12.7478 21.1897C12.7478 20.7757 13.0838 20.4397 13.4978 20.4397H20.7508C21.1648 20.4397 21.5008 20.7757 21.5008 21.1897C21.5008 21.6037 21.1648 21.9397 20.7508 21.9397" fill="#212121"/>
<mask id="mask0_1496_3695" style="mask-type:luminance" maskUnits="userSpaceOnUse" x="2" y="3" width="18" height="19">
<path fill-rule="evenodd" clip-rule="evenodd" d="M2.00024 3.00018H19.1808V21.9397H2.00024V3.00018Z" fill="white"/>
</mask>
<g mask="url(#mask0_1496_3695)">
<path fill-rule="evenodd" clip-rule="evenodd" d="M13.1105 5.01683L3.69552 16.7918C3.52452 17.0058 3.46152 17.2818 3.52452 17.5468L4.20552 20.4318L7.24452 20.3938C7.53352 20.3908 7.80052 20.2618 7.97752 20.0418C11.1945 16.0168 17.3275 8.34283 17.5015 8.11783C17.6655 7.85183 17.7295 7.47583 17.6435 7.11383C17.5555 6.74283 17.3245 6.42783 16.9915 6.22683C16.9205 6.17783 15.2355 4.86983 15.1835 4.82883C14.5495 4.32083 13.6245 4.40883 13.1105 5.01683V5.01683ZM3.61352 21.9398C3.26652 21.9398 2.96452 21.7018 2.88352 21.3628L2.06452 17.8918C1.89552 17.1728 2.06352 16.4308 2.52452 15.8548L11.9445 4.07283C11.9485 4.06883 11.9515 4.06383 11.9555 4.05983C12.9885 2.82483 14.8565 2.64283 16.1165 3.65383C16.1665 3.69283 17.8395 4.99283 17.8395 4.99283C18.4475 5.35483 18.9225 6.00183 19.1025 6.76783C19.2815 7.52583 19.1515 8.30783 18.7345 8.96883C18.7035 9.01783 18.6765 9.05983 9.14852 20.9798C8.68952 21.5518 8.00152 21.8848 7.26252 21.8938L3.62352 21.9398H3.61352Z" fill="#212121"/>
</g>
<path fill-rule="evenodd" clip-rule="evenodd" d="M16.2234 11.6848C16.0634 11.6848 15.9034 11.6338 15.7664 11.5298L10.3144 7.34181C9.98642 7.08981 9.92442 6.61981 10.1764 6.28981C10.4294 5.96181 10.8994 5.90081 11.2284 6.15281L16.6814 10.3398C17.0094 10.5918 17.0714 11.0628 16.8184 11.3918C16.6714 11.5838 16.4484 11.6848 16.2234 11.6848" fill="#212121"/>
</svg>
