<svg width="24" height="24" viewBox="0 0 24 24" fill="none" xmlns="http://www.w3.org/2000/svg">
<path d="M19.4358 5.77441C21.9294 9.49441 21.9367 14.4035 19.4358 18.1317" stroke="#212121" stroke-width="1.5" stroke-linecap="round" stroke-linejoin="round"/>
<path d="M16.989 8.21716C18.2708 10.5399 18.2708 13.3744 16.989 15.689" stroke="#212121" stroke-width="1.5" stroke-linecap="round" stroke-linejoin="round"/>
<path fill-rule="evenodd" clip-rule="evenodd" d="M2.68237 11.9529C2.67964 13.1993 2.68237 14.6611 3.71146 15.5347C4.74146 16.4093 5.55783 16.0483 6.88964 16.4865C8.22237 16.9256 10.0887 19.6329 12.1506 18.4102C13.2651 17.6183 13.7906 16.1238 13.7906 11.9529C13.7906 7.78198 13.2887 6.3038 12.1506 5.49562C10.0887 4.2738 8.22237 6.98107 6.88964 7.41926C5.55783 7.85835 4.74146 7.49744 3.71146 8.37107C2.68237 9.24471 2.67964 10.7065 2.68237 11.9529Z" stroke="#212121" stroke-width="1.5" stroke-linecap="round" stroke-linejoin="round"/>
</svg>
