<svg width="24" height="24" viewBox="0 0 24 24" fill="none" xmlns="http://www.w3.org/2000/svg">
<g clip-path="url(#clip0_1512_45642)">
<path opacity="0.4" d="M20.289 12.6588L11.811 12.6588C11.4188 12.6588 11.1005 12.3405 11.1005 11.9483C11.1005 11.5561 11.4188 11.2378 11.811 11.2378L20.289 11.2378C20.6812 11.2378 20.9995 11.5561 20.9995 11.9483C20.9995 12.3405 20.6812 12.6588 20.289 12.6588" fill="#212121"/>
<mask id="mask0_1512_45642" style="mask-type:luminance" maskUnits="userSpaceOnUse" x="3" y="6" width="10" height="12">
<path fill-rule="evenodd" clip-rule="evenodd" d="M12.5212 6.5L12.5212 17.3964H3.58178L3.58178 6.5L12.5212 6.5Z" fill="white"/>
</mask>
<g mask="url(#mask0_1512_45642)">
<path d="M11.8107 17.3967C11.6781 17.3967 11.5473 17.3597 11.4318 17.2877L3.91345 12.5499C3.70692 12.4192 3.58092 12.1928 3.58092 11.9484C3.58092 11.7039 3.70692 11.4775 3.91345 11.3468L11.4318 6.609C11.6506 6.47163 11.9272 6.4631 12.1537 6.5891C12.381 6.71416 12.5212 6.95195 12.5212 7.21058L12.5212 16.6862C12.5212 16.9448 12.381 17.1826 12.1537 17.3076C12.0466 17.3673 11.9282 17.3967 11.8107 17.3967" fill="#212121"/>
</g>
</g>
<defs>
<clipPath id="clip0_1512_45642">
<rect width="24" height="24" fill="white"/>
</clipPath>
</defs>
</svg>
