<svg width="24" height="24" viewBox="0 0 24 24" fill="none" xmlns="http://www.w3.org/2000/svg">
<g clip-path="url(#clip0_1512_45628)">
<path opacity="0.4" d="M12 2C17.515 2 22 6.486 22 12C22 17.514 17.515 22 12 22C6.486 22 2 17.514 2 12C2 6.486 6.486 2 12 2" fill="#212121"/>
<path d="M10.5575 7.77942C10.7485 7.77942 10.9405 7.85242 11.0865 7.99842L14.5735 11.4684C14.7145 11.6094 14.7935 11.8004 14.7935 12.0004C14.7935 12.1994 14.7145 12.3904 14.5735 12.5314L11.0865 16.0034C10.7935 16.2954 10.3195 16.2954 10.0265 16.0014C9.73448 15.7074 9.73548 15.2324 10.0285 14.9404L12.9815 12.0004L10.0285 9.06042C9.73548 8.76842 9.73448 8.29442 10.0265 8.00042C10.1725 7.85242 10.3655 7.77942 10.5575 7.77942" fill="#212121"/>
</g>
<defs>
<clipPath id="clip0_1512_45628">
<rect width="24" height="24" fill="white"/>
</clipPath>
</defs>
</svg>
