<svg width="24" height="24" viewBox="0 0 24 24" fill="none" xmlns="http://www.w3.org/2000/svg">
<g clip-path="url(#clip0_1512_45647)">
<path opacity="0.4" d="M12.6593 3.71101V12.189C12.6593 12.5812 12.341 12.8995 11.9488 12.8995C11.5566 12.8995 11.2383 12.5812 11.2383 12.189V3.71101C11.2383 3.3188 11.5566 3.00049 11.9488 3.00049C12.341 3.00049 12.6593 3.3188 12.6593 3.71101" fill="#212121"/>
<mask id="mask0_1512_45647" style="mask-type:luminance" maskUnits="userSpaceOnUse" x="6" y="11" width="12" height="10">
<path fill-rule="evenodd" clip-rule="evenodd" d="M6.50024 11.4785H17.3966V20.418H6.50024V11.4785Z" fill="white"/>
</mask>
<g mask="url(#mask0_1512_45647)">
<path d="M17.3969 12.189C17.3969 12.3217 17.36 12.4524 17.288 12.568L12.5502 20.0863C12.4195 20.2928 12.193 20.4188 11.9486 20.4188C11.7042 20.4188 11.4778 20.2928 11.347 20.0863L6.60924 12.568C6.47187 12.3491 6.46335 12.0725 6.58935 11.8461C6.7144 11.6187 6.95219 11.4785 7.21082 11.4785H16.6864C16.945 11.4785 17.1828 11.6187 17.3079 11.8461C17.3676 11.9531 17.3969 12.0716 17.3969 12.189" fill="#212121"/>
</g>
</g>
<defs>
<clipPath id="clip0_1512_45647">
<rect width="24" height="24" fill="white"/>
</clipPath>
</defs>
</svg>
