<svg width="24" height="24" viewBox="0 0 24 24" fill="none" xmlns="http://www.w3.org/2000/svg">
<path fill-rule="evenodd" clip-rule="evenodd" d="M7.19406 4.83152C7.59601 4.10099 8.03328 3.61265 8.68213 3.35439C9.87114 2.88161 14.1295 2.88161 15.3176 3.35448C15.9661 3.6126 16.4035 4.10086 16.8058 4.83124L17.258 5.69839C17.2684 5.71557 17.2779 5.73068 17.2864 5.74368L17.3248 5.79619C17.5308 6.02069 17.8757 6.15632 18.1032 6.15632C20.2553 6.15632 22.0002 7.90091 22.0002 10.0523V15.8473C22.0002 18.5915 19.7745 20.8173 17.0302 20.8173H6.97024C4.22535 20.8173 2.00024 18.5918 2.00024 15.8473V10.0523C2.00024 7.90091 3.74522 6.15632 5.89724 6.15632C6.12402 6.15632 6.46932 6.02049 6.67568 5.79619C6.67981 5.7917 6.68519 5.78501 6.69169 5.77615L6.74312 5.69727L7.19406 4.83152ZM15.4919 5.5549C15.2419 5.10106 15.016 4.84891 14.7629 4.74815L14.6436 4.70848C13.6144 4.4176 10.0347 4.43082 9.2366 4.74815C8.98358 4.84886 8.75793 5.10087 8.50826 5.55462L8.1234 6.29872L8.02868 6.47015C7.9496 6.60168 7.87051 6.7127 7.78019 6.81111C7.27373 7.36161 6.52449 7.65632 5.89724 7.65632L5.73315 7.66185C4.48599 7.74618 3.50024 8.78453 3.50024 10.0523V15.8473C3.50024 17.7635 5.05383 19.3173 6.97024 19.3173H17.0302C18.946 19.3173 20.5002 17.7631 20.5002 15.8473V10.0523C20.5002 8.72941 19.4269 7.65632 18.1032 7.65632L17.9291 7.64904C17.3406 7.60061 16.6795 7.31148 16.2197 6.81044C16.1306 6.71334 16.0519 6.6031 15.9733 6.47269C15.962 6.45398 15.948 6.42935 15.9319 6.4002L15.8158 6.18246L15.4919 5.5549Z" fill="#212121"/>
<path d="M17.5046 8.5C18.0569 8.5 18.5046 8.94772 18.5046 9.5C18.5046 10.0128 18.1186 10.4355 17.6212 10.4933L17.5046 10.5C16.9433 10.5 16.4956 10.0523 16.4956 9.5C16.4956 8.98716 16.8816 8.56449 17.379 8.50673L17.5046 8.5Z" fill="#212121"/>
<path fill-rule="evenodd" clip-rule="evenodd" d="M8.07104 13.128C8.07104 10.9578 9.82983 9.19904 12 9.19904C14.1703 9.19904 15.929 10.9578 15.929 13.128C15.929 15.2982 14.1703 17.057 12 17.057C9.82983 17.057 8.07104 15.2982 8.07104 13.128ZM14.429 13.128C14.429 11.7862 13.3418 10.699 12 10.699C10.6583 10.699 9.57104 11.7862 9.57104 13.128C9.57104 14.4698 10.6583 15.557 12 15.557C13.3418 15.557 14.429 14.4698 14.429 13.128Z" fill="#212121"/>
</svg>
