<svg width="24" height="24" viewBox="0 0 24 24" fill="none" xmlns="http://www.w3.org/2000/svg">
<path opacity="0.4" fill-rule="evenodd" clip-rule="evenodd" d="M10.1315 9.06256C9.8386 8.76964 9.36372 8.76959 9.0708 9.06245C8.77788 9.35531 8.77783 9.83019 9.07069 10.1231L10.9385 11.9913L9.07325 13.8566C8.78035 14.1495 8.78035 14.6243 9.07325 14.9172C9.36614 15.2101 9.84101 15.2101 10.1339 14.9172L11.9991 13.0521L13.8667 14.9201C14.1596 15.213 14.6344 15.2131 14.9273 14.9202C15.2203 14.6274 15.2203 14.1525 14.9275 13.8596L13.0597 11.9914L14.9259 10.1252C15.2188 9.83235 15.2188 9.35747 14.9259 9.06458C14.633 8.77169 14.1581 8.77169 13.8652 9.06458L11.9992 10.9307L10.1315 9.06256Z" fill="#212121"/>
<path fill-rule="evenodd" clip-rule="evenodd" d="M16.3345 2.75018H7.66549C4.64449 2.75018 2.75049 4.88918 2.75049 7.91618V16.0842C2.75049 19.1112 4.63549 21.2502 7.66549 21.2502H16.3335C19.3645 21.2502 21.2505 19.1112 21.2505 16.0842V7.91618C21.2505 4.88918 19.3645 2.75018 16.3345 2.75018Z" stroke="#212121" stroke-width="1.5" stroke-linecap="round" stroke-linejoin="round"/>
</svg>
