<svg width="24" height="24" viewBox="0 0 24 24" fill="none" xmlns="http://www.w3.org/2000/svg">
<path fill-rule="evenodd" clip-rule="evenodd" d="M14.7365 2.7619H7.97851C5.91951 2.7619 4.24951 4.4309 4.24951 6.4909V17.3399C4.24951 19.5159 6.01351 21.1149 8.18951 21.1149H16.0725C18.1325 21.1149 19.8015 19.3999 19.8015 17.3399V8.0379L14.7365 2.7619Z" stroke="#212121" stroke-width="1.5" stroke-linecap="round" stroke-linejoin="round"/>
<path d="M14.4739 2.75018V5.65918C14.4739 7.07918 15.6229 8.23118 17.0419 8.23418C18.3589 8.23718 19.7059 8.23818 19.7969 8.23218" stroke="#212121" stroke-width="1.5" stroke-linecap="round" stroke-linejoin="round"/>
<path opacity="0.4" fill-rule="evenodd" clip-rule="evenodd" d="M10.6407 10.6512C10.3478 10.3584 9.87291 10.3584 9.58002 10.6512C9.28713 10.9441 9.28713 11.419 9.58002 11.7119L10.7828 12.9147L9.58027 14.1172C9.28737 14.4101 9.28737 14.885 9.58027 15.1779C9.87316 15.4708 10.348 15.4708 10.6409 15.1779L11.8435 13.9754L13.046 15.1779C13.3389 15.4708 13.8138 15.4708 14.1067 15.1779C14.3996 14.885 14.3996 14.4101 14.1067 14.1172L12.9041 12.9147L14.1069 11.7119C14.3998 11.419 14.3998 10.9441 14.1069 10.6512C13.814 10.3584 13.3392 10.3584 13.0463 10.6512L11.8435 11.854L10.6407 10.6512Z" fill="#212121"/>
</svg>
