<svg width="24" height="24" viewBox="0 0 24 24" fill="none" xmlns="http://www.w3.org/2000/svg">
<path d="M18.6558 8.63458C19.9091 10.9057 19.9091 13.6772 18.6558 15.9404" stroke="#212121" stroke-width="1.5" stroke-linecap="round" stroke-linejoin="round"/>
<path fill-rule="evenodd" clip-rule="evenodd" d="M4.66711 12.2873C4.66355 13.5059 4.66711 14.9353 5.67333 15.7895C6.67955 16.6446 7.47866 16.2917 8.78088 16.7202C10.084 17.1495 11.9089 19.7966 13.9249 18.6011C15.0147 17.8268 15.5284 16.3655 15.5284 12.2873C15.5284 8.20906 15.0378 6.76373 13.9249 5.9735C11.9089 4.77884 10.084 7.42595 8.78088 7.85439C7.47866 8.28373 6.67955 7.93084 5.67333 8.78506C4.66711 9.63928 4.66355 11.0686 4.66711 12.2873Z" stroke="#212121" stroke-width="1.5" stroke-linecap="round" stroke-linejoin="round"/>
</svg>
