<svg width="24" height="24" viewBox="0 0 24 24" fill="none" xmlns="http://www.w3.org/2000/svg">
<path fill-rule="evenodd" clip-rule="evenodd" d="M14.7365 2.7619H8.08449C6.02549 2.7619 4.25049 4.4309 4.25049 6.4909V17.2279C4.25049 19.4039 5.90849 21.1149 8.08449 21.1149H16.0725C18.1325 21.1149 19.8025 19.2879 19.8025 17.2279V8.0379L14.7365 2.7619Z" stroke="#212121" stroke-width="1.5" stroke-linecap="round" stroke-linejoin="round"/>
<path d="M14.4739 2.75018V5.65918C14.4739 7.07918 15.6229 8.23118 17.0429 8.23418C18.3589 8.23718 19.7059 8.23818 19.7969 8.23218" stroke="#212121" stroke-width="1.5" stroke-linecap="round" stroke-linejoin="round"/>
<path opacity="0.4" fill-rule="evenodd" clip-rule="evenodd" d="M12.3907 9.44073C12.3907 9.02652 12.0549 8.69073 11.6407 8.69073C11.2265 8.69073 10.8907 9.02652 10.8907 9.44073V14.1981L9.33379 12.634C9.04156 12.3405 8.56669 12.3394 8.27313 12.6316C7.97957 12.9238 7.97848 13.3987 8.27071 13.6923L11.1087 16.5433C11.2494 16.6846 11.4407 16.7641 11.6402 16.7641C11.8296 16.7642 12.0115 16.6926 12.1499 16.5643C12.1588 16.5561 12.1675 16.5476 12.176 16.539L15.0107 13.6924C15.303 13.3988 15.302 12.924 15.0085 12.6317C14.7149 12.3394 14.2401 12.3404 13.9478 12.6339L12.3907 14.1976V9.44073Z" fill="#212121"/>
</svg>
