<svg width="24" height="24" viewBox="0 0 24 24" fill="none" xmlns="http://www.w3.org/2000/svg">
<path fill-rule="evenodd" clip-rule="evenodd" d="M18.865 5.12383C19.302 5.27683 19.594 5.68883 19.594 6.15183V12.9248C19.594 14.8178 18.905 16.6248 17.691 18.0248C17.079 18.7298 16.307 19.2788 15.486 19.7228L11.928 21.6448L8.364 19.7218C7.541 19.2778 6.768 18.7298 6.156 18.0238C4.94 16.6238 4.25 14.8158 4.25 12.9208V6.15183C4.25 5.68883 4.542 5.27683 4.979 5.12383L11.561 2.81083C11.795 2.72883 12.05 2.72883 12.283 2.81083L18.865 5.12383Z" stroke="#212121" stroke-width="1.5" stroke-linecap="round" stroke-linejoin="round"/>
<path opacity="0.4" fill-rule="evenodd" clip-rule="evenodd" d="M10.5733 9.55811C10.2804 9.26522 9.80553 9.26522 9.51264 9.55811C9.21975 9.851 9.21975 10.3259 9.51264 10.6188L10.8614 11.9675L9.51285 13.3161C9.21996 13.609 9.21996 14.0839 9.51285 14.3768C9.80575 14.6697 10.2806 14.6697 10.5735 14.3768L11.9221 13.0282L13.2706 14.3768C13.5635 14.6697 14.0384 14.6697 14.3313 14.3768C14.6242 14.0839 14.6242 13.609 14.3313 13.3161L12.9827 11.9675L14.3315 10.6188C14.6244 10.3259 14.6244 9.851 14.3315 9.55811C14.0386 9.26522 13.5637 9.26522 13.2709 9.55811L11.9221 10.9069L10.5733 9.55811Z" fill="#212121"/>
</svg>
