<svg width="24" height="24" viewBox="0 0 24 24" fill="none" xmlns="http://www.w3.org/2000/svg">
<g clip-path="url(#clip0_1512_45632)">
<path opacity="0.4" d="M3.71101 11.3412H12.189C12.5812 11.3412 12.8995 11.6595 12.8995 12.0517C12.8995 12.4439 12.5812 12.7622 12.189 12.7622H3.71101C3.3188 12.7622 3.00049 12.4439 3.00049 12.0517C3.00049 11.6595 3.3188 11.3412 3.71101 11.3412" fill="#212121"/>
<mask id="mask0_1512_45632" style="mask-type:luminance" maskUnits="userSpaceOnUse" x="11" y="6" width="10" height="12">
<path fill-rule="evenodd" clip-rule="evenodd" d="M11.4788 17.5V6.6036H20.4182V17.5H11.4788Z" fill="white"/>
</mask>
<g mask="url(#mask0_1512_45632)">
<path d="M12.1893 6.60332C12.3219 6.60332 12.4527 6.64027 12.5682 6.71227L20.0865 11.4501C20.2931 11.5808 20.4191 11.8072 20.4191 12.0516C20.4191 12.2961 20.2931 12.5225 20.0865 12.6532L12.5682 17.391C12.3494 17.5284 12.0728 17.5369 11.8463 17.4109C11.619 17.2858 11.4788 17.0481 11.4788 16.7894V7.31384C11.4788 7.05521 11.619 6.81742 11.8463 6.69237C11.9534 6.63269 12.0718 6.60332 12.1893 6.60332" fill="#212121"/>
</g>
</g>
<defs>
<clipPath id="clip0_1512_45632">
<rect width="24" height="24" fill="white"/>
</clipPath>
</defs>
</svg>
