<svg width="24" height="24" viewBox="0 0 24 24" fill="none" xmlns="http://www.w3.org/2000/svg">
<path opacity="0.4" fill-rule="evenodd" clip-rule="evenodd" d="M15.8579 7.55612C15.8762 7.68943 15.8933 7.81499 15.9025 7.98118L6.29014 17.5924H6.06782C4.65985 17.5924 3.63298 16.5974 3.44243 15.052C3.2307 13.5066 3.27304 10.8603 3.44243 9.4525C3.64356 7.99176 4.72337 6.98618 6.06782 6.98618H7.89925L11.3927 4.12717C11.8162 3.76833 12.5678 3.42961 13.15 3.41797C14.2087 3.41797 15.1826 4.15998 15.532 5.3455C15.6696 5.84194 15.7225 6.3405 15.7649 6.81576L15.8496 7.49426C15.8524 7.51518 15.8552 7.53574 15.8579 7.55612ZM14.8808 13.7313C15.0248 13.5905 15.3434 13.491 15.4874 13.527C15.877 13.6265 15.9521 14.1843 15.9468 14.6225C15.9288 15.8949 15.8854 16.7798 15.8177 17.327L15.77 17.7779L15.7692 17.7864C15.724 18.24 15.6771 18.7093 15.5435 19.2101C15.1899 20.3935 14.2446 21.162 13.1711 21.162C13.1351 21.162 13.1002 21.162 13.0642 21.1609C12.4714 21.1609 11.8267 20.8053 11.4614 20.4951L10.1604 19.4885C9.66706 19.1212 9.81209 18.5337 10.0894 18.1939C10.2965 17.9411 12.7843 15.6578 14.0922 14.4575C14.5363 14.0499 14.8443 13.7672 14.8808 13.7313Z" fill="#212121"/>
<path d="M21.7275 3.26979C21.3538 2.90884 20.7801 2.91095 20.4201 3.27085L3.27035 20.4186C2.90936 20.7795 2.90936 21.3543 3.27352 21.7322C3.45984 21.9047 3.69062 22 3.92458 22C4.16383 22 4.40943 21.8994 4.57987 21.729L21.7286 4.58127C22.0906 4.21926 22.0906 3.63285 21.7275 3.26979" fill="#212121"/>
</svg>
