<svg width="24" height="24" viewBox="0 0 24 24" fill="none" xmlns="http://www.w3.org/2000/svg">
<path opacity="0.4" fill-rule="evenodd" clip-rule="evenodd" d="M5.46436 10.9321C5.46436 10.5179 5.12857 10.1821 4.71436 10.1821C4.30014 10.1821 3.96436 10.5179 3.96436 10.9321C3.96436 15.1831 7.21627 18.6735 11.3685 19.0519V21.1468C11.3685 21.5611 11.7043 21.8968 12.1185 21.8968C12.5328 21.8968 12.8685 21.5611 12.8685 21.1468V19.0518C17.0204 18.6731 20.2729 15.1829 20.2729 10.9321C20.2729 10.5179 19.9371 10.1821 19.5229 10.1821C19.1087 10.1821 18.7729 10.5179 18.7729 10.9321C18.7729 14.6073 15.7936 17.5859 12.1182 17.5859C8.44285 17.5859 5.46436 14.6074 5.46436 10.9321Z" fill="#212121"/>
<path fill-rule="evenodd" clip-rule="evenodd" d="M11.9923 3.46393C10.3855 3.46393 9.08228 4.76719 9.08228 6.37393V10.9244C9.08228 12.532 10.3854 13.8344 11.9923 13.8344H12.2447C13.8523 13.8344 15.1547 12.5321 15.1547 10.9244V10.7985H13.0492C12.635 10.7985 12.2992 10.4627 12.2992 10.0485C12.2992 9.6343 12.635 9.29852 13.0492 9.29852H15.1547V7.62701H14.0016C13.5874 7.62701 13.2516 7.29122 13.2516 6.87701C13.2516 6.46279 13.5874 6.12701 14.0016 6.12701H15.1443C15.019 4.63566 13.769 3.46393 12.2447 3.46393H11.9923ZM7.58228 6.37393C7.58228 3.93876 9.55711 1.96393 11.9923 1.96393H12.2447C14.6809 1.96393 16.6547 3.93889 16.6547 6.37393V10.9244C16.6547 13.3605 14.6808 15.3344 12.2447 15.3344H11.9923C9.55724 15.3344 7.58228 13.3606 7.58228 10.9244V6.37393Z" fill="#212121"/>
</svg>
