<svg width="24" height="24" viewBox="0 0 24 24" fill="none" xmlns="http://www.w3.org/2000/svg">
<path opacity="0.4" d="M17.554 7.29639C20.005 7.29639 22 9.35618 22 11.8878V16.9201C22 19.4456 20.01 21.5002 17.564 21.5002L6.448 21.5002C3.996 21.5002 2 19.4414 2 16.9098V11.8775C2 9.35205 3.991 7.29639 6.438 7.29639H7.378L17.554 7.29639Z" fill="#212121"/>
<path d="M12.5462 16.0374L15.4552 13.0695C15.7552 12.7627 15.7552 12.2691 15.4532 11.9634C15.1512 11.6587 14.6642 11.6597 14.3642 11.9654L12.7712 13.5905L12.7712 3.2821C12.7712 2.85042 12.4262 2.5 12.0002 2.5C11.5752 2.5 11.2312 2.85042 11.2312 3.2821L11.2312 13.5905L9.63718 11.9654C9.33718 11.6597 8.85018 11.6587 8.54818 11.9634C8.39718 12.1168 8.32118 12.3168 8.32118 12.518C8.32118 12.717 8.39718 12.9171 8.54618 13.0695L11.4552 16.0374C11.6002 16.1847 11.7962 16.268 12.0002 16.268C12.2052 16.268 12.4012 16.1847 12.5462 16.0374" fill="#212121"/>
</svg>
