<svg width="24" height="24" viewBox="0 0 24 24" fill="none" xmlns="http://www.w3.org/2000/svg">
<path fill-rule="evenodd" clip-rule="evenodd" d="M14.7362 2.7619H8.08424C6.02524 2.7619 4.25024 4.4309 4.25024 6.4909V17.3399C4.25024 19.5159 5.90824 21.1149 8.08424 21.1149H16.0722C18.1322 21.1149 19.8022 19.3999 19.8022 17.3399V8.0379L14.7362 2.7619Z" stroke="#212121" stroke-width="1.5" stroke-linecap="round" stroke-linejoin="round"/>
<path d="M14.4736 2.75018V5.65918C14.4736 7.07918 15.6226 8.23118 17.0426 8.23418C18.3586 8.23718 19.7056 8.23818 19.7966 8.23218" stroke="#212121" stroke-width="1.5" stroke-linecap="round" stroke-linejoin="round"/>
<path opacity="0.4" fill-rule="evenodd" clip-rule="evenodd" d="M12.5936 10.4644C12.5936 10.0502 12.2578 9.71442 11.8436 9.71442C11.4294 9.71442 11.0936 10.0502 11.0936 10.4644V12.1641H9.39331C8.9791 12.1641 8.64331 12.4999 8.64331 12.9141C8.64331 13.3283 8.9791 13.6641 9.39331 13.6641H11.0936V15.3654C11.0936 15.7796 11.4294 16.1154 11.8436 16.1154C12.2578 16.1154 12.5936 15.7796 12.5936 15.3654V13.6641H14.2943C14.7085 13.6641 15.0443 13.3283 15.0443 12.9141C15.0443 12.4999 14.7085 12.1641 14.2943 12.1641H12.5936V10.4644Z" fill="#212121"/>
</svg>
