<svg width="24" height="24" viewBox="0 0 24 24" fill="none" xmlns="http://www.w3.org/2000/svg">
<path opacity="0.4" d="M4.72276 21.1675C4.70976 21.1675 4.69776 21.1675 4.68376 21.1665C4.36876 21.1505 4.05976 21.0825 3.76576 20.9635C2.31876 20.3755 1.62076 18.7225 2.20776 17.2765L9.52876 4.45049C9.78076 3.99449 10.1628 3.61249 10.6288 3.35449C11.9938 2.59849 13.7198 3.09549 14.4748 4.45949L21.7478 17.1875C21.9098 17.5685 21.9788 17.8785 21.9958 18.1945C22.0348 18.9505 21.7768 19.6755 21.2708 20.2365C20.7648 20.7975 20.0698 21.1285 19.3148 21.1665L4.79476 21.1675H4.72276Z" fill="#212121"/>
<path fill-rule="evenodd" clip-rule="evenodd" d="M11.1245 10.021C11.1245 9.539 11.5175 9.146 11.9995 9.146C12.4815 9.146 12.8745 9.539 12.8745 10.021V12.849C12.8745 13.332 12.4815 13.724 11.9995 13.724C11.5175 13.724 11.1245 13.332 11.1245 12.849V10.021ZM11.1245 16.2701C11.1245 15.7851 11.5175 15.3901 11.9995 15.3901C12.4815 15.3901 12.8745 15.7801 12.8745 16.2591C12.8745 16.7521 12.4815 17.1451 11.9995 17.1451C11.5175 17.1451 11.1245 16.7521 11.1245 16.2701Z" fill="#212121"/>
</svg>
