<svg width="24" height="24" viewBox="0 0 24 24" fill="none" xmlns="http://www.w3.org/2000/svg">
<g clip-path="url(#clip0_1512_45638)">
<path opacity="0.4" d="M12 22C6.485 22 2 17.514 2 12C2 6.486 6.485 2 12 2C17.514 2 22 6.486 22 12C22 17.514 17.514 22 12 22" fill="#212121"/>
<path d="M13.4425 16.2206C13.2515 16.2206 13.0595 16.1476 12.9135 16.0016L9.42652 12.5316C9.28552 12.3906 9.20652 12.1996 9.20652 11.9996C9.20652 11.8006 9.28552 11.6096 9.42652 11.4686L12.9135 7.99658C13.2065 7.70458 13.6805 7.70458 13.9735 7.99858C14.2655 8.29258 14.2645 8.76758 13.9715 9.05958L11.0185 11.9996L13.9715 14.9396C14.2645 15.2316 14.2655 15.7056 13.9735 15.9996C13.8275 16.1476 13.6345 16.2206 13.4425 16.2206" fill="#212121"/>
</g>
<defs>
<clipPath id="clip0_1512_45638">
<rect width="24" height="24" fill="white"/>
</clipPath>
</defs>
</svg>
