<svg width="24" height="24" viewBox="0 0 24 24" fill="none" xmlns="http://www.w3.org/2000/svg">
<path d="M6.42 17.7297C4.19 16.2697 2.75 14.0697 2.75 12.1397C2.75 8.85972 6.89 4.83972 12 4.83972C14.09 4.83972 16.03 5.50972 17.59 6.54972" stroke="#212121" stroke-width="1.5" stroke-linecap="round" stroke-linejoin="round"/>
<path d="M19.8496 8.61023C20.7406 9.74023 21.2596 10.9902 21.2596 12.1402C21.2596 15.4202 17.1096 19.4402 11.9996 19.4402C11.0896 19.4402 10.2006 19.3102 9.36963 19.0802" stroke="#212121" stroke-width="1.5" stroke-linecap="round" stroke-linejoin="round"/>
<path d="M9.7656 14.3669C9.1706 13.7779 8.8376 12.9749 8.8406 12.1379C8.8366 10.3929 10.2486 8.97493 11.9946 8.97193C12.8346 8.96993 13.6406 9.30293 14.2346 9.89693" stroke="#212121" stroke-width="1.5" stroke-linecap="round" stroke-linejoin="round"/>
<path d="M15.1095 12.6991C14.8755 13.9911 13.8645 15.0041 12.5725 15.2411" stroke="#212121" stroke-width="1.5" stroke-linecap="round" stroke-linejoin="round"/>
<path d="M19.8917 4.24988L4.11768 20.0239" stroke="#212121" stroke-width="1.5" stroke-linecap="round" stroke-linejoin="round"/>
</svg>
