<svg width="24" height="24" viewBox="0 0 24 24" fill="none" xmlns="http://www.w3.org/2000/svg">
<path fill-rule="evenodd" clip-rule="evenodd" d="M14.7362 2.7619H8.08424C6.02524 2.7619 4.25024 4.4309 4.25024 6.4909V17.2279C4.25024 19.4039 5.90824 21.1149 8.08424 21.1149H16.0722C18.1322 21.1149 19.8022 19.2879 19.8022 17.2279V8.0379L14.7362 2.7619Z" stroke="#212121" stroke-width="1.5" stroke-linecap="round" stroke-linejoin="round"/>
<path d="M14.4736 2.75018V5.65918C14.4736 7.07918 15.6226 8.23118 17.0426 8.23418C18.3586 8.23718 19.7056 8.23818 19.7966 8.23218" stroke="#212121" stroke-width="1.5" stroke-linecap="round" stroke-linejoin="round"/>
<path opacity="0.4" fill-rule="evenodd" clip-rule="evenodd" d="M12.1717 8.91091C12.0309 8.76956 11.8397 8.69011 11.6402 8.69012C11.4407 8.69014 11.2494 8.76963 11.1087 8.91101L8.27071 11.762C7.97848 12.0556 7.97957 12.5304 8.27313 12.8227C8.56669 13.1149 9.04156 13.1138 9.33379 12.8202L10.8907 11.2562V16.0136C10.8907 16.4278 11.2265 16.7636 11.6407 16.7636C12.0549 16.7636 12.3907 16.4278 12.3907 16.0136V11.2566L13.9478 12.8203C14.2401 13.1138 14.7149 13.1148 15.0085 12.8226C15.302 12.5303 15.303 12.0554 15.0107 11.7619L12.1717 8.91091Z" fill="#212121"/>
</svg>
